Coordinates
version=1
nRows=11
nColumns=63
inDegrees=yes

Units are S.I. units (second, meters, Newtons, ...)
If the header above contains a line with 'inDegrees', this indicates whether rotational values are in degrees (yes) or radians (no).

endheader
time	pelvis_tilt	pelvis_list	pelvis_rotation	pelvis_tx	pelvis_ty	pelvis_tz	hip_flexion_r	hip_adduction_r	hip_rotation_r	knee_angle_r	knee_angle_r_beta	ankle_angle_r	subtalar_angle_r	mtp_angle_r	hip_flexion_l	hip_adduction_l	hip_rotation_l	knee_angle_l	knee_angle_l_beta	ankle_angle_l	subtalar_angle_l	mtp_angle_l	L5_S1_Flex_Ext	L5_S1_Lat_Bending	L5_S1_axial_rotation	L4_L5_Flex_Ext	L4_L5_Lat_Bending	L4_L5_axial_rotation	L3_L4_Flex_Ext	L3_L4_Lat_Bending	L3_L4_axial_rotation	L2_L3_Flex_Ext	L2_L3_Lat_Bending	L2_L3_axial_rotation	L1_L2_Flex_Ext	L1_L2_Lat_Bending	L1_L2_axial_rotation	L1_T12_Flex_Ext	L1_T12_Lat_Bending	L1_T12_axial_rotation	Abs_r3	Abs_r2	Abs_r1	Abs_t1	Abs_t2	neck_flexion	neck_bending	neck_rotation	arm_flex_r	arm_add_r	arm_rot_r	elbow_flex_r	pro_sup_r	wrist_flex_r	wrist_dev_r	arm_flex_l	arm_add_l	arm_rot_l	elbow_flex_l	pro_sup_l	wrist_flex_l	wrist_dev_l
0.000000	-1.305067	-6.654046	86.554635	0.109974	1.022029	0.327654	9.090685	-0.462508	-12.785977	15.930840	0.278046	39.063184	17.959415	0.000000	12.374056	-2.693976	-13.166218	21.108683	0.368416	40.471628	13.404233	0.000000	0.070076	0.207633	0.374326	0.130139	0.276152	0.397721	0.115129	0.504839	0.397721	0.080090	0.504839	0.327535	0.065073	0.423405	0.304140	0.040042	0.321623	0.280744	0.500549	2.348786	2.081888	0.000000	0.000000	24.167274	-1.699459	-2.659632	23.693246	-1.564256	75.197000	27.466856	73.205091	-3.384430	-3.350767	23.782300	-3.723619	70.520185	30.817260	58.746020	-1.650617	-1.704146
0.016949	-1.129919	-6.977228	87.923832	0.108009	1.021049	0.330629	9.519514	-0.501728	-14.015755	15.963311	0.278612	39.228450	17.943641	0.000000	13.381850	-2.547702	-11.637067	21.689335	0.378550	40.315592	13.008812	0.000000	0.075912	0.223976	0.082991	0.140976	0.297888	0.088178	0.124716	0.544576	0.088178	0.086760	0.544576	0.072617	0.070492	0.456732	0.067430	0.043376	0.346939	0.062243	0.542233	2.533663	0.461569	0.000000	0.000000	24.570851	-1.665217	-2.564967	25.426682	-1.047023	78.530199	26.874610	82.373010	-6.458312	-3.453021	23.813915	-2.864720	74.368137	29.658524	53.617704	-2.946053	-2.330425
0.033898	-1.001310	-7.256395	89.020597	0.106439	1.020227	0.332995	9.877670	-0.537193	-14.989070	15.957475	0.278510	39.377972	17.934610	0.000000	14.204020	-2.414332	-10.363718	22.138450	0.386389	40.188361	12.655977	0.000000	0.081829	0.236645	-0.156451	0.151964	0.314738	-0.166230	0.134437	0.575378	-0.166230	0.093522	0.575378	-0.136895	0.075986	0.482566	-0.127117	0.046757	0.366563	-0.117339	0.584495	2.676973	-0.870136	0.000000	0.000000	24.939276	-1.630441	-2.422110	26.668333	-0.373864	84.426396	25.748396	87.271814	-9.073567	-3.615544	23.756498	-2.118083	77.834948	28.625434	49.118961	-4.091318	-2.928029
0.050847	-0.914565	-7.493906	89.868403	0.105228	1.019551	0.334807	10.169931	-0.568628	-15.727813	15.917169	0.277807	39.512841	17.931774	0.000000	14.855611	-2.294187	-9.328517	22.468484	0.392149	40.088860	12.346684	0.000000	0.087701	0.246024	-0.348379	0.162870	0.327212	-0.370153	0.144084	0.598184	-0.370153	0.100234	0.598184	-0.304832	0.081439	0.501693	-0.283058	0.050113	0.381092	-0.261285	0.626442	2.783076	-1.937582	0.000000	0.000000	25.272596	-1.595169	-2.234953	27.470012	0.429790	92.511165	24.166657	88.410895	-11.266666	-3.829390	23.622777	-1.475811	80.942808	27.711644	45.206280	-5.096614	-3.495436
0.067797	-0.865010	-7.692120	90.490724	0.104345	1.019013	0.336118	10.401077	-0.595756	-16.253869	15.846235	0.276569	39.634151	17.934582	0.000000	15.351668	-2.187590	-8.513808	22.691892	0.396048	40.016015	12.081889	0.000000	0.093404	0.252500	-0.497172	0.173461	0.335826	-0.528246	0.153454	0.613929	-0.528246	0.106751	0.613929	-0.435026	0.086735	0.514899	-0.403953	0.053371	0.391123	-0.372879	0.667176	2.856335	-2.765124	0.000000	0.000000	25.570857	-1.559443	-2.007384	27.883537	1.338508	102.410080	22.207837	86.299643	-13.074078	-4.085615	23.425478	-0.930006	83.713910	26.910808	41.836148	-5.972144	-4.031125
0.084746	-0.847968	-7.853395	90.911034	0.103756	1.018604	0.336983	10.575886	-0.618300	-16.589129	15.748513	0.274863	39.742992	17.942484	0.000000	15.707237	-2.094860	-7.901937	22.821129	0.398304	39.968751	11.862546	0.000000	0.098812	0.256459	-0.607210	0.183503	0.341090	-0.645160	0.162338	0.623553	-0.645160	0.112932	0.623553	-0.531308	0.091757	0.522970	-0.493358	0.056461	0.397254	-0.455407	0.705802	2.901110	-3.377118	0.000000	0.000000	25.834103	-1.523302	-1.743295	27.960722	2.326861	113.748715	19.950379	81.447449	-14.532270	-4.375275	23.177328	-0.472770	86.170444	26.216580	38.965055	-6.728111	-4.533573
0.101695	-0.858764	-7.980088	91.152806	0.103427	1.018313	0.337454	10.699138	-0.635984	-16.755478	15.627842	0.272757	39.840457	17.954930	0.000000	15.937363	-2.016321	-7.475249	22.868650	0.399133	39.945995	11.689613	0.000000	0.103799	0.258284	-0.682870	0.192765	0.343518	-0.725549	0.170531	0.627993	-0.725549	0.118632	0.627993	-0.597511	0.096388	0.526693	-0.554832	0.059311	0.400082	-0.512153	0.741424	2.921764	-3.797919	0.000000	0.000000	26.062381	-1.486787	-1.446576	27.753382	3.369420	126.152644	17.472727	74.363704	-15.677711	-4.689425	22.891054	-0.096206	88.334603	25.622614	36.549489	-7.374716	-5.001259
0.118644	-0.892723	-8.074559	91.239516	0.103324	1.018132	0.337587	10.775611	-0.648531	-16.774807	15.488064	0.270318	39.927638	17.971370	0.000000	16.057093	-1.952293	-7.216089	22.846912	0.398754	39.946672	11.564043	0.000000	0.108240	0.258363	-0.728533	0.201012	0.343623	-0.774066	0.177827	0.628185	-0.774066	0.123707	0.628185	-0.637466	0.100512	0.526855	-0.591933	0.061848	0.400205	-0.546400	0.773147	2.922658	-4.051881	0.000000	0.000000	26.255737	-1.449939	-1.121117	27.313333	4.440753	139.247441	14.853323	65.557798	-16.546871	-5.019121	22.579383	0.207585	90.228578	25.122564	34.545940	-7.922164	-5.432660
0.135593	-0.945169	-8.139165	91.194635	0.103414	1.018052	0.337435	10.810084	-0.655664	-16.669002	15.333017	0.267612	40.005626	17.991254	0.000000	16.081470	-1.903098	-7.106802	22.768368	0.397383	39.969707	11.486794	0.000000	0.112010	0.257081	-0.748577	0.208013	0.341918	-0.795363	0.184021	0.625067	-0.795363	0.128016	0.625067	-0.655005	0.104012	0.524240	-0.608219	0.064002	0.398219	-0.561433	0.800075	2.908154	-4.163361	0.000000	0.000000	26.414214	-1.412797	-0.770809	26.692391	5.515431	152.658680	12.170611	55.539123	-17.176219	-5.355418	22.255041	0.446500	91.874561	24.710083	32.910896	-8.380655	-5.826255
0.152542	-1.011427	-8.176265	91.041639	0.103664	1.018061	0.337053	10.807335	-0.657108	-16.459952	15.166542	0.264706	40.075513	18.014033	0.000000	16.025541	-1.869056	-7.129734	22.645476	0.395238	40.014028	11.458820	0.000000	0.114983	0.254823	-0.747382	0.213535	0.338915	-0.794093	0.188906	0.619577	-0.794093	0.131414	0.619577	-0.653959	0.106773	0.519636	-0.607248	0.065701	0.394721	-0.560536	0.821312	2.882612	-4.156713	0.000000	0.000000	26.537861	-1.375402	-0.399541	25.942371	6.568024	166.011935	9.503036	44.817069	-17.602222	-5.689373	21.930755	0.628437	93.294743	24.378826	31.600845	-8.760394	-6.180522
0.169492	-1.086823	-8.188216	90.804002	0.104040	1.018153	0.336493	10.772145	-0.652584	-16.169545	14.992479	0.261668	40.138391	18.039157	0.000000	15.904351	-1.850491	-7.267229	22.490688	0.392537	40.078558	11.481077	0.000000	0.117034	0.251975	-0.729326	0.217344	0.335127	-0.774909	0.192275	0.612653	-0.774909	0.133758	0.612653	-0.638160	0.108678	0.513828	-0.592578	0.066873	0.390310	-0.546995	0.835962	2.850395	-4.056294	0.000000	0.000000	26.626721	-1.337795	-0.011204	25.115088	7.573102	178.932780	6.929039	33.901027	-17.861350	-6.012040	21.619252	0.761294	94.511315	24.122447	30.572278	-9.071581	-6.493938
